# xmcd CD database file
#
# Track frame offsets:
#	150
#	19520
#	41527
#	58331
#	78493
#	100789
#	119648
#	136868
#	154488
#	171426
#	192113
#
# Disc length: 2834 seconds
#
# Revision: 0
# Processed by: cddbd v1.5.2PL0 Copyright (c) Steve Scherf et al.
# Submitted via: CDex 1.70beta2
#
DISCID=940b100b
DTITLE=Edo Zanki - Zu viele Engel
DYEAR=2011
DGENRE=Blues
TTITLE0=Finde dein Glück
TTITLE1=Zu viele Engel
TTITLE2=Hast du kein Herz?
TTITLE3=Ein neuer Tag
TTITLE4=Lass uns ein Wunder sein
TTITLE5=Mitten unterm Jahr
TTITLE6=Im Herzen der Stadt
TTITLE7=Beton
TTITLE8=Sag jetzt nichts
TTITLE9=Kein Tag tut mir leid
TTITLE10=Zeichen und Wunder
EXTD=YEAR: 2011
EXTT0=
EXTT1=
EXTT2=
EXTT3=
EXTT4=
EXTT5=
EXTT6=
EXTT7=
EXTT8=
EXTT9=
EXTT10=
PLAYORDER=
